<svg width="44" height="44" viewBox="0 0 44 44" fill="none" xmlns="http://www.w3.org/2000/svg">
<path d="M33.8024 7.99701C34.2142 8.99306 35.0047 9.7848 36.0001 10.1981L39.4905 11.644C40.4866 12.0566 41.278 12.848 41.6906 13.8441C42.1032 14.8402 42.1032 15.9595 41.6906 16.9556L40.2458 20.4436C39.8331 21.4402 39.8325 22.5606 40.2471 23.5566L41.6894 27.0436C41.8939 27.537 41.9992 28.0658 41.9993 28.5999C41.9994 29.134 41.8942 29.6629 41.6899 30.1563C41.4855 30.6497 41.1859 31.0981 40.8082 31.4757C40.4305 31.8533 39.982 32.1527 39.4886 32.357L36.0007 33.8017C35.0047 34.2136 34.213 35.0041 33.7997 35.9995L32.3539 39.49C31.9413 40.4862 31.1499 41.2776 30.1538 41.6902C29.1577 42.1028 28.0385 42.1028 27.0424 41.6902L23.5546 40.2454C22.5584 39.8338 21.4397 39.8347 20.4442 40.2478L16.9538 41.6915C15.9582 42.1032 14.84 42.1028 13.8447 41.6905C12.8495 41.2783 12.0585 40.4878 11.6456 39.4927L10.1994 36.0012C9.7876 35.0051 8.99709 34.2134 8.00169 33.8001L4.51133 32.3542C3.51567 31.9418 2.72451 31.1509 2.31176 30.1553C1.89902 29.1598 1.89846 28.0411 2.31021 27.0451L3.75493 23.5571C4.16651 22.5609 4.16567 21.4421 3.75259 20.4466L2.30994 16.9536C2.10541 16.4602 2.00009 15.9314 2 15.3973C1.99991 14.8632 2.10507 14.3343 2.30945 13.8409C2.51383 13.3474 2.81343 12.8991 3.19114 12.5215C3.56884 12.1439 4.01725 11.8444 4.51073 11.6402L7.99859 10.1954C8.99374 9.78394 9.78497 8.9944 10.1986 8.00011L11.6444 4.50962C12.057 3.51349 12.8484 2.72207 13.8444 2.30946C14.8405 1.89685 15.9597 1.89685 16.9558 2.30946L20.4437 3.75423C21.4398 4.16583 22.5586 4.16498 23.5541 3.75189L27.0459 2.3117C28.0419 1.89932 29.1609 1.8994 30.1568 2.31193C31.1527 2.72446 31.9439 3.51566 32.3566 4.51153L33.8028 8.00306L33.8024 7.99701Z" fill="#0F8F10"/>
<path d="M16 22L20 26L29 17M33.8024 7.99701C34.2142 8.99307 35.0047 9.7848 36.0001 10.1981L39.4905 11.644C40.4866 12.0566 41.278 12.848 41.6906 13.8441C42.1032 14.8402 42.1032 15.9595 41.6906 16.9556L40.2458 20.4436C39.8331 21.4402 39.8325 22.5606 40.2471 23.5566L41.6894 27.0436C41.8939 27.537 41.9992 28.0658 41.9993 28.5999C41.9994 29.134 41.8942 29.6629 41.6899 30.1563C41.4855 30.6497 41.1859 31.0981 40.8082 31.4757C40.4305 31.8533 39.982 32.1527 39.4886 32.357L36.0007 33.8017C35.0047 34.2136 34.213 35.0041 33.7997 35.9996L32.3539 39.49C31.9413 40.4862 31.1499 41.2776 30.1538 41.6902C29.1577 42.1028 28.0385 42.1028 27.0424 41.6902L23.5546 40.2454C22.5584 39.8338 21.4397 39.8347 20.4442 40.2478L16.9538 41.6915C15.9582 42.1032 14.84 42.1028 13.8447 41.6905C12.8495 41.2783 12.0585 40.4878 11.6456 39.4927L10.1994 36.0012C9.7876 35.0051 8.99709 34.2134 8.00169 33.8001L4.51133 32.3542C3.51567 31.9418 2.72451 31.1509 2.31176 30.1553C1.89902 29.1598 1.89846 28.0411 2.31021 27.0451L3.75493 23.5571C4.16651 22.5609 4.16567 21.4421 3.75259 20.4466L2.30994 16.9536C2.10541 16.4602 2.00009 15.9314 2 15.3973C1.99991 14.8632 2.10507 14.3343 2.30945 13.8409C2.51383 13.3474 2.81343 12.8991 3.19114 12.5215C3.56884 12.1439 4.01725 11.8444 4.51073 11.6402L7.99859 10.1954C8.99374 9.78394 9.78497 8.9944 10.1986 8.00011L11.6444 4.50962C12.057 3.51349 12.8484 2.72207 13.8444 2.30946C14.8405 1.89685 15.9597 1.89685 16.9558 2.30946L20.4437 3.75423C21.4398 4.16583 22.5586 4.16498 23.5541 3.75189L27.0459 2.3117C28.0419 1.89932 29.1609 1.8994 30.1568 2.31193C31.1527 2.72446 31.9439 3.51566 32.3566 4.51153L33.8028 8.00306L33.8024 7.99701Z" stroke="#0F8F10" stroke-width="3" stroke-linecap="round" stroke-linejoin="round"/>
<path d="M16 22L20 26L29 17" stroke="white" stroke-width="3" stroke-linecap="round" stroke-linejoin="round"/>
</svg>
